<?xml version="1.0" standalone="no"?>
<!DOCTYPE svg PUBLIC "-//W3C//DTD SVG 20010904//EN"
 "http://www.w3.org/TR/2001/REC-SVG-20010904/DTD/svg10.dtd">
<svg version="1.0" xmlns="http://www.w3.org/2000/svg"
 width="500.000000pt" height="500.000000pt" viewBox="0 0 500.000000 500.000000"
 preserveAspectRatio="xMidYMid meet">

<g transform="translate(0.000000,500.000000) scale(0.100000,-0.100000)"
fill="#000000" stroke="none">
<path d="M0 2500 l0 -2500 2500 0 2500 0 0 2500 0 2500 -2500 0 -2500 0 0
-2500z m2529 1475 c12 -41 27 -75 34 -75 44 -2 175 -33 245 -59 214 -78 410
-271 492 -484 31 -80 60 -198 60 -245 0 -26 5 -29 88 -52 l87 -24 -85 -26
c-80 -25 -85 -28 -88 -56 -10 -113 -62 -267 -124 -372 -43 -72 -156 -193 -233
-247 -116 -83 -262 -140 -407 -161 l-48 -6 -20 -68 c-11 -37 -20 -72 -20 -79
0 -6 -4 -11 -10 -11 -5 0 -10 5 -10 11 0 7 -9 42 -20 79 l-20 66 -96 17 c-379
68 -664 365 -712 742 l-7 59 -85 25 -84 25 84 26 85 26 7 64 c15 132 75 279
161 396 142 193 352 315 599 349 l48 6 21 75 c12 41 25 74 29 74 4 0 17 -34
29 -75z m-1559 -2290 l0 -45 -115 0 -115 0 0 -45 0 -45 105 0 105 0 0 -40 0
-40 -105 0 -105 0 0 -45 0 -45 120 0 120 0 0 -45 0 -45 -175 0 -175 0 0 220 0
220 170 0 170 0 0 -45z m440 8 c-1 -34 -14 -54 -115 -173 l-114 -135 115 -3
114 -3 0 -44 0 -45 -190 0 -190 0 0 38 c1 33 14 53 115 172 l114 135 -110 3
-109 3 0 44 0 45 185 0 185 0 0 -37z m410 -8 l0 -45 -115 0 -115 0 0 -45 0
-45 105 0 105 0 0 -40 0 -40 -105 0 -105 0 0 -45 0 -44 118 -3 117 -3 3 -42 3
-43 -175 0 -176 0 0 220 0 220 170 0 170 0 0 -45z m420 0 l0 -45 -115 0 -115
0 0 -45 0 -45 105 0 105 0 0 -40 0 -40 -105 0 -105 0 0 -45 0 -45 120 0 120 0
0 -45 0 -45 -175 0 -175 0 0 220 0 220 170 0 170 0 0 -45z m380 20 c19 -9 36
-19 38 -20 2 -2 -6 -21 -17 -44 l-21 -40 -46 19 c-56 24 -132 27 -141 5 -9
-26 25 -53 100 -75 93 -29 127 -63 127 -130 0 -59 -24 -92 -85 -116 -63 -24
-163 -16 -232 20 -29 14 -53 29 -53 32 0 2 9 22 20 43 l19 38 57 -28 c65 -33
134 -39 155 -13 22 26 -2 47 -90 79 -106 39 -131 62 -131 124 0 55 18 84 68
111 48 26 178 23 232 -5z m220 -135 c24 -88 44 -159 46 -158 1 2 14 50 29 108
14 58 33 129 41 158 l15 52 53 0 53 0 38 -147 c21 -82 41 -154 44 -160 4 -7
20 38 35 100 16 61 35 133 43 160 l14 47 55 0 c41 0 55 -3 51 -12 -2 -7 -35
-106 -73 -220 l-69 -208 -56 0 -56 0 -38 145 c-21 80 -42 142 -46 138 -6 -7
-79 -264 -79 -278 0 -3 -26 -5 -58 -5 l-57 0 -69 208 c-38 114 -71 213 -73
220 -4 9 11 12 55 12 l59 0 43 -160z m906 -45 c46 -110 87 -208 90 -217 5 -16
-2 -18 -51 -18 l-57 0 -15 40 -16 40 -97 0 -98 0 -16 -40 c-16 -40 -16 -40
-71 -40 -30 0 -55 2 -55 3 0 5 180 419 187 429 2 5 30 8 60 6 l55 -3 84 -200z
m432 182 c47 -25 72 -72 72 -132 0 -102 -54 -151 -179 -162 l-71 -6 0 -58 0
-59 -55 0 -55 0 0 221 0 221 128 -4 c97 -3 135 -8 160 -21z m-2382 -615 c1 -7
0 -8 -3 -2 -2 5 -16 10 -29 10 -34 0 -33 -37 1 -46 32 -8 46 -33 34 -56 -14
-26 -56 -23 -70 5 -12 22 -12 22 9 3 23 -20 52 -16 52 8 0 9 -13 22 -30 31
-28 15 -39 43 -23 59 11 11 56 2 59 -12z m174 -37 c7 -24 16 -42 21 -39 11 6
11 -7 1 -23 -5 -8 -16 11 -29 52 -12 36 -18 63 -13 60 4 -2 13 -25 20 -50z
m81 -3 l16 -47 17 53 c10 29 20 52 22 49 2 -2 -6 -32 -18 -67 l-21 -64 -14 39
c-24 72 -24 72 -39 40 -16 -37 -18 -20 -3 24 13 38 19 34 40 -27z m262 46 c36
-90 45 -121 31 -100 -11 14 -27 22 -46 22 -20 0 -31 -6 -38 -22 -5 -13 -9 -19
-9 -13 -1 15 43 125 50 125 4 0 9 -6 12 -12z m264 -4 c9 -24 -10 -49 -40 -52
-21 -3 -27 -10 -30 -35 -2 -18 -5 -2 -5 36 l-2 67 35 0 c24 0 38 -5 42 -16z
m233 -4 c20 -20 26 -56 12 -76 -11 -16 -48 -34 -71 -34 -19 0 -21 6 -21 65 l0
65 30 0 c17 0 39 -9 50 -20z m214 13 c-31 -4 -31 -5 -32 -58 0 -53 0 -54 31
-58 31 -4 30 -4 -5 -5 l-38 -2 0 65 0 65 38 -2 c35 -1 35 -1 6 -5z m195 -20
l13 -28 15 28 c8 16 17 27 20 24 2 -3 -3 -17 -12 -31 -16 -24 -16 -27 5 -61
12 -19 19 -35 17 -35 -3 0 -14 14 -25 32 l-20 31 -17 -32 c-9 -18 -19 -31 -21
-28 -3 2 3 18 13 36 17 29 17 33 1 61 -9 17 -14 30 -9 30 4 0 13 -12 20 -27z"/>
<path d="M2303 3663 c-21 -7 -47 -17 -58 -23 -11 -5 -31 -14 -45 -20 -72 -31
-169 -108 -219 -175 -23 -30 -41 -57 -41 -60 0 -3 -9 -18 -20 -33 -19 -26 -70
-163 -70 -188 0 -9 10 -10 38 -3 60 14 61 13 51 -28 -5 -21 -9 -50 -9 -65 0
-25 2 -26 38 -21 31 5 131 32 182 49 12 4 15 -7 15 -63 l0 -69 -55 23 c-54 21
-170 45 -179 37 -3 -3 0 -32 5 -65 l10 -60 -49 6 -49 7 7 -33 c14 -68 66 -176
117 -244 86 -114 245 -217 372 -240 34 -7 38 -6 33 11 -3 11 -8 33 -12 51 l-6
31 38 -9 c21 -5 51 -9 67 -9 28 0 28 0 21 47 -4 25 -17 78 -31 117 -13 38 -22
71 -21 72 1 1 34 4 73 6 l72 5 -19 -42 c-22 -50 -49 -150 -49 -183 0 -22 2
-23 48 -17 26 3 55 8 66 11 16 5 17 2 11 -28 -3 -18 -9 -41 -11 -50 -4 -13 0
-16 17 -13 50 10 150 48 173 66 13 10 27 19 32 19 9 0 92 67 118 95 77 85 145
206 165 293 l9 44 -35 -7 c-19 -3 -41 -9 -49 -12 -12 -4 -13 5 -8 53 3 33 7
64 9 70 6 20 -149 -17 -213 -50 -17 -9 -34 -16 -37 -16 -3 0 -2 24 1 54 4 32
2 68 -5 86 -10 29 -9 31 7 25 71 -31 183 -65 211 -65 l34 0 -6 64 -6 64 37 -9
c20 -5 42 -9 48 -9 20 0 -3 77 -49 170 -59 119 -169 229 -287 287 -84 41 -107
50 -150 58 -16 3 -20 0 -16 -13 3 -9 8 -34 12 -54 l6 -37 -33 9 c-19 6 -49 10
-67 10 l-34 0 7 -42 c6 -39 40 -146 59 -190 7 -15 4 -16 -21 -9 -17 5 -53 7
-82 5 l-51 -4 15 31 c17 32 55 171 55 200 0 11 -6 16 -17 14 -10 -2 -40 -6
-66 -9 l-49 -6 7 33 c4 17 9 40 11 49 6 20 -15 20 -73 1z m238 -604 c18 -34
-3 -69 -41 -69 -38 0 -59 35 -41 69 16 29 66 29 82 0z"/>
<path d="M3567 1538 c-15 -40 -27 -76 -27 -80 0 -10 120 -11 120 -1 0 13 -55
153 -60 153 -3 0 -18 -33 -33 -72z"/>
<path d="M4000 1570 l0 -70 49 0 c61 0 101 28 101 71 0 47 -31 69 -95 69 l-55
0 0 -70z"/>
<path d="M2290 1067 c-15 -31 -10 -40 18 -35 19 3 19 6 7 33 l-12 30 -13 -28z"/>
<path d="M2510 1075 c0 -23 4 -26 28 -23 19 2 27 9 27 23 0 14 -8 21 -27 23
-24 3 -28 0 -28 -23z"/>
<path d="M2740 1045 c0 -61 14 -70 58 -39 42 29 19 94 -34 94 -22 0 -24 -3
-24 -55z"/>
</g>
</svg>
